<svg width="58" height="58" viewBox="0 0 58 58" fill="none" xmlns="http://www.w3.org/2000/svg">
<path d="M43.892 42.2709L38.0625 40.3281H19.9375L14.108 42.2709C8.11887 44.268 4.07812 50.5529 4.07812 56.8672H53.9219C53.9219 50.5529 49.8811 44.268 43.892 42.2709Z" fill="#F93E36"/>
<path d="M40.2881 18.2813L37.609 17.8984C33.4912 17.3105 29.6748 15.4017 26.734 12.4609C23.8816 12.4609 21.1957 13.8045 19.484 16.0859L17.7168 18.4422C17.8086 21.0873 18.0487 23.8196 18.435 26.3945C18.9159 29.5775 19.3186 32.5742 22.4723 35.3075L22.4157 35.3709C21.5851 37.0322 20.759 38.6843 19.9371 40.3281C21.4058 44.7323 23.5925 48.9761 26.5018 52.857L28.9996 56.8672L31.4975 52.857C32.6223 51.3572 33.6487 49.7894 34.5708 48.1649C35.9845 45.6761 37.1536 43.0514 38.0621 40.3281L35.5835 35.3709L35.5269 35.3075C37.4277 33.6547 38.7531 31.3064 39.1734 28.7859C39.3943 27.4526 39.4711 27.0274 39.571 26.3492C39.9618 23.7358 40.2009 20.9616 40.2892 18.2813H40.2881Z" fill="white"/>
<path d="M40.2881 18.2813L37.609 17.8984C33.4912 17.3105 29.6748 15.4017 26.734 12.4609C23.8816 12.4609 21.1957 13.8045 19.484 16.0859L17.7168 18.4422C17.8086 21.0873 18.0487 23.8196 18.435 26.3945C18.9159 29.5775 19.3186 32.5742 22.4723 35.3075L22.4157 35.3709C21.585 37.0322 29.1129 42.0273 29.1129 42.0273L35.5835 35.3709L35.5269 35.3075C37.4277 33.6547 38.7531 31.3064 39.1734 28.7859C39.3943 27.4526 39.4711 27.0274 39.571 26.3492C39.9618 23.7358 40.2009 20.9616 40.2892 18.2813H40.2881Z" fill="#D79C69"/>
<path d="M44.8593 16.9922V24.1289C44.8593 25.3807 43.8454 26.3945 42.5936 26.3945H39.8749L39.5713 26.3492C39.9621 23.7358 40.2011 20.9616 40.2895 18.2813C40.3042 17.8486 40.3144 17.4193 40.3189 16.9922H40.328H44.8593Z" fill="#FFC3C0"/>
<path d="M30.0139 5.66406C35.7085 5.66406 40.3315 10.3245 40.3281 16.0191C40.3281 16.5919 40.3161 17.5033 40.2896 18.2813C37.3018 17.8545 37.6351 17.9021 37.6094 17.8984C33.4916 17.3105 29.6752 15.4017 26.7344 12.4609C23.882 12.4609 21.1961 13.8045 19.4844 16.0859L17.7172 18.4422C17.6877 17.6517 17.6719 16.728 17.6719 16.0191C17.6685 10.3245 22.2915 5.66406 27.9861 5.66406H29H30.0139Z" fill="#1F0000"/>
<path d="M29 28.6602C30.2518 28.6602 31.2656 29.674 31.2656 30.9258C31.2656 32.1764 30.2506 33.1914 29 33.1914H26.7344C25.4826 33.1914 24.4688 32.1775 24.4688 30.9258C24.4688 29.6752 25.4837 28.6602 26.7344 28.6602H29Z" fill="#FFC3C0"/>
<path d="M18.4354 26.3945H15.4062C14.1545 26.3945 13.1406 25.3807 13.1406 24.1289V16.9922H17.6719H17.6809C17.6866 17.4714 17.6991 17.9551 17.7172 18.4422C17.8089 21.0873 18.0491 23.8196 18.4354 26.3945Z" fill="#FFC3C0"/>
<path d="M41.4609 47.125C42.0862 47.125 42.5938 46.6175 42.5938 45.9922C42.5938 45.3669 42.0862 44.8594 41.4609 44.8594C40.8356 44.8594 40.3281 45.3669 40.3281 45.9922C40.3281 46.6175 40.8356 47.125 41.4609 47.125Z" fill="#1F0000"/>
<path d="M4.07812 58H53.9219C54.5474 58 55.0547 57.4928 55.0547 56.8672C55.0547 49.8745 50.5109 43.2839 44.2501 41.1962L38.8659 39.4018L36.933 35.5359C38.6743 33.7635 39.8834 31.4183 40.2911 28.9722L40.5321 27.5273H42.5938C44.4676 27.5273 45.9922 26.0028 45.9922 24.1289V16.9922C45.9922 7.6227 38.3695 0 29 0C19.6065 0 12.0078 7.60083 12.0078 16.9922V24.1289C12.0078 25.6056 12.955 26.8649 14.2734 27.3325V28.6602C14.2734 30.5341 15.798 32.0586 17.6719 32.0586H18.6667C19.1578 33.1254 19.7934 34.1134 20.5669 35.001C20.7273 35.1854 20.8946 35.3641 21.066 35.538L19.1341 39.4018L13.7497 41.1963C7.48925 43.2839 2.94531 49.8745 2.94531 56.8672C2.94531 57.4928 3.45247 58 4.07812 58ZM29 54.7246L27.4637 52.2581C27.4465 52.2305 27.4281 52.2036 27.4086 52.1776C26.4913 50.9539 25.6355 49.6742 24.8562 48.3643L28.8961 44.092L33.153 48.3489C32.3684 49.6683 31.5097 50.9533 30.5916 52.1773C30.5361 52.2513 30.6148 52.1348 29 54.7246ZM34.2991 46.2908L30.4534 42.4451L35.2946 37.3255L36.8357 40.4078C36.1374 42.4285 35.2872 44.3997 34.2991 46.2908ZM28.8508 40.8425L26.6391 38.6307C27.4161 38.7944 28.2083 38.8781 29 38.8781C29.6198 38.8781 30.2396 38.8262 30.8525 38.7256L28.8508 40.8425ZM22.5134 37.7093L27.2934 42.4894L23.7004 46.2891C22.7112 44.3957 21.8612 42.4252 21.1641 40.4079L22.5134 37.7093ZM52.7438 55.7344H31.0402L32.4337 53.4973C33.5695 51.9793 34.6201 50.3737 35.5562 48.7245C35.5618 48.7146 35.5671 48.7044 35.5728 48.6944C35.5735 48.6932 35.5742 48.692 35.5748 48.6908C36.8272 46.4818 37.8981 44.1542 38.7653 41.7565L43.5336 43.3456C48.56 45.0217 52.2948 50.1225 52.7438 55.7344ZM15.4062 25.2617C14.7816 25.2617 14.2734 24.7535 14.2734 24.1289V18.125H16.5728C16.5766 18.2432 16.5805 18.3619 16.5849 18.4814C16.5851 18.4855 16.5853 18.4894 16.5854 18.4935C16.5854 18.4938 16.5854 18.4942 16.5854 18.4945C16.6647 20.7683 16.8541 23.0803 17.1355 25.2616H15.4062V25.2617ZM39.1865 16.9684C39.1865 16.972 39.1864 16.9758 39.1864 16.9795L37.7694 16.7771C33.9201 16.2274 30.2856 14.4102 27.5354 11.6599C27.3229 11.4475 27.0348 11.3281 26.7344 11.3281C23.6921 11.3281 20.7799 12.7142 18.8548 15.056C19.3292 10.4433 23.2287 6.79688 27.9861 6.79688H30.0139C35.0899 6.79688 39.1983 10.9487 39.1953 16.0191C39.1953 16.3756 39.1925 16.686 39.1865 16.9684ZM43.7266 24.1289C43.7266 24.7535 43.2184 25.2617 42.5938 25.2617H40.8649C41.1528 23.0312 41.3447 20.6576 41.4219 18.3198C41.4241 18.2539 41.4259 18.1898 41.428 18.125H43.7266V24.1289ZM29 2.26562C36.7391 2.26562 43.1031 8.26636 43.6834 15.8594H41.4591C41.3776 9.60319 36.283 4.53125 30.014 4.53125H27.9862C21.7174 4.53125 16.6224 9.60319 16.541 15.8594H14.3165C14.8903 8.26715 21.2263 2.26562 29 2.26562ZM16.5391 28.6602V27.5273H17.4677L17.7088 28.9727C17.7548 29.2474 17.8113 29.5211 17.8767 29.793H17.6719C17.0472 29.793 16.5391 29.2848 16.5391 28.6602ZM23.5308 32.0586C23.9984 33.3771 25.2575 34.3242 26.7344 34.3242H29C30.8776 34.3242 32.3984 32.8035 32.3984 30.9258C32.3984 29.0519 30.8739 27.5273 29 27.5273H26.7344C25.2247 27.5273 23.9841 28.5025 23.5289 29.793H20.2252C19.6581 27.9065 19.0093 22.3557 18.8659 18.7987L20.3905 16.7657C21.7908 14.8993 23.9693 13.7397 26.2867 13.6066C29.3359 16.5084 33.2806 18.4246 37.4491 19.0198L39.1168 19.2582C39.0053 21.624 38.7775 23.9982 38.4512 26.1817C38.4511 26.1824 38.4509 26.1831 38.4508 26.1839C38.3471 26.8859 38.2653 27.3377 38.0564 28.5996C37.4564 32.1979 34.7715 35.4519 31.227 36.3381C29.7683 36.7023 28.2315 36.7022 26.7736 36.3381C24.5604 35.7849 22.5311 34.2535 21.2214 32.0586H23.5308ZM25.6016 30.9258C25.6016 30.3004 26.1088 29.793 26.7344 29.793H29C29.6246 29.793 30.1328 30.3011 30.1328 30.9258C30.1328 31.5513 29.6254 32.0586 29 32.0586H26.7344C26.1097 32.0586 25.6016 31.5504 25.6016 30.9258ZM14.4662 43.3456L19.2347 41.7565C20.1083 44.1722 21.1906 46.5202 22.459 48.7505C22.4612 48.7543 22.4632 48.7582 22.4654 48.7619L22.4655 48.7621C23.3922 50.3921 24.4353 51.985 25.5662 53.4972L26.9598 55.7344H5.25625C5.70518 50.1225 9.43995 45.0217 14.4662 43.3456Z" fill="#1F0000"/>
<path d="M44.7507 49.0523C45.8217 49.8762 46.7073 50.9516 47.3121 52.1622C47.5923 52.7229 48.2731 52.9485 48.8318 52.6694C49.3914 52.3898 49.6185 51.7095 49.3391 51.1497C48.582 49.6344 47.4731 48.2881 46.1322 47.2566C45.6362 46.875 44.925 46.9677 44.5436 47.4637C44.1621 47.9596 44.2549 48.6708 44.7507 49.0523Z" fill="#1F0000"/>
</svg>
