<svg width="58" height="58" viewBox="0 0 58 58" fill="none" xmlns="http://www.w3.org/2000/svg">
<path d="M17.3094 19.1853L13.5938 18.125H11.7812L12.6875 25.375L10.875 27.1875L9.0625 25.375L9.96875 18.125H8.15625L4.44063 19.1853C2.88188 19.6294 1.8125 21.0522 1.8125 22.6744V34.4375H10.875H16.3125H19.9375V22.6744C19.9375 21.0522 18.8681 19.6294 17.3094 19.1853Z" fill="#F38344"/>
<path d="M11.7812 18.125L12.6875 25.375L10.875 27.1875L9.0625 25.375L9.96875 18.125H10.875H11.7812Z" fill="#FF826E"/>
<path d="M38.0625 22.6742V34.4373H19.9375V22.6742C19.9375 21.052 21.0069 19.6292 22.5656 19.1851L23.7075 18.8589L25.375 27.1873L29 23.5623L32.625 27.1873L34.2925 18.8589L35.4344 19.1851C36.9931 19.6292 38.0625 21.052 38.0625 22.6742Z" fill="#F93E36"/>
<path d="M25.3111 18.4058L28.9995 23.5623L25.3745 27.1873L23.707 18.8589L25.3111 18.4058Z" fill="#FC6E51"/>
<path d="M34.2925 18.8589L32.625 27.1873L29 23.5623L32.6884 18.4058L34.2925 18.8589Z" fill="#FC6E51"/>
<path d="M31.7187 18.125L32.6884 18.4059L29 23.5625L25.3115 18.4059L26.2812 18.125H29H31.7187Z" fill="#F0D0B4"/>
<path d="M56.1875 22.6743V34.4374H38.0625V22.6743C38.0625 21.0521 39.1319 19.6293 40.6906 19.1852L43.2553 18.4512L44.6872 23.5624L45.9741 28.1299C46.1191 28.6465 46.5903 28.9999 47.125 28.9999C47.6597 28.9999 48.1309 28.6465 48.2759 28.1299L49.5628 23.5624L50.9947 18.4512L53.5594 19.1852C55.1181 19.6293 56.1875 21.0521 56.1875 22.6743Z" fill="#F38344"/>
<path d="M50.9943 18.4513L49.5624 23.5625H44.6868L43.2549 18.4513L44.4058 18.125H47.1246H49.8433L50.9943 18.4513Z" fill="#F0D0B4"/>
<path d="M49.5631 23.5625L48.2762 28.13C48.1312 28.6466 47.66 29 47.1253 29C46.5906 29 46.1194 28.6466 45.9744 28.13L44.6875 23.5625H49.5631Z" fill="#FFEEE4"/>
<path d="M41.6875 39.875V54.375H34.4375C32.4347 54.375 30.6222 53.5594 29.3081 52.2544C28.0031 50.9403 27.1875 49.1278 27.1875 47.125C27.1875 43.1194 30.4319 39.875 34.4375 39.875H41.6875Z" fill="#F38344"/>
<path d="M45.3125 54.375V55.2812C45.3125 55.7797 44.9047 56.1875 44.4062 56.1875H42.5938C42.0953 56.1875 41.6875 55.7797 41.6875 55.2812V54.375V39.875V38.9688C41.6875 38.4703 42.0953 38.0625 42.5938 38.0625H44.4062C44.9047 38.0625 45.3125 38.4703 45.3125 38.9688V39.875V43.5V50.75V54.375Z" fill="#F38344"/>
<path d="M10.8752 18.1251H9.96893H8.15643V17.8804C8.15643 16.7023 7.56737 15.6148 6.61581 14.926C4.56768 13.4398 3.32612 10.9113 3.68862 8.11103C4.09643 4.85759 6.76987 2.22947 10.0324 1.8579C14.4096 1.36853 18.1252 4.77603 18.1252 9.06259C18.1252 11.4551 16.9652 13.5667 15.1799 14.8898C14.2192 15.6057 13.5939 16.6842 13.5939 17.8804V18.1251H11.7814H10.8752Z" fill="#FFEEE4"/>
<path d="M29.0002 18.1251H26.2814V17.8804C26.2814 16.7023 25.6924 15.6148 24.7408 14.926C22.6927 13.4398 21.4511 10.9113 21.8136 8.11103C22.2214 4.85759 24.8949 2.22947 28.1574 1.8579C32.5346 1.36853 36.2502 4.77603 36.2502 9.06259C36.2502 11.4551 35.0902 13.5667 33.3049 14.8898C32.3443 15.6057 31.7189 16.6842 31.7189 17.8804V18.1251H29.0002Z" fill="#FFEEE4"/>
<path d="M54.375 39.875C55.3719 39.875 56.1875 40.6906 56.1875 41.6875C56.1875 42.1859 55.9881 42.6391 55.6528 42.9653C55.3266 43.3006 54.8734 43.5 54.375 43.5H45.3125V39.875H54.375Z" fill="#E6E9ED"/>
<path d="M54.375 50.75C55.3719 50.75 56.1875 51.5656 56.1875 52.5625C56.1875 53.0609 55.9881 53.5141 55.6528 53.8403C55.3266 54.1756 54.8734 54.375 54.375 54.375H45.3125V50.75H54.375Z" fill="#E6E9ED"/>
<path d="M47.1252 18.1251H44.4064V17.8804C44.4064 16.7023 43.8174 15.6148 42.8658 14.926C40.8177 13.4398 39.5761 10.9113 39.9386 8.11103C40.3464 4.85759 43.0199 2.22947 46.2824 1.8579C50.6596 1.36853 54.3752 4.77603 54.3752 9.06259C54.3752 11.4551 53.2152 13.5667 51.4299 14.8898C50.4693 15.6057 49.8439 16.6842 49.8439 17.8804V18.1251H47.1252Z" fill="#FFEEE4"/>
<path d="M47.125 10.875C48.126 10.875 48.9375 10.0635 48.9375 9.0625C48.9375 8.06148 48.126 7.25 47.125 7.25C46.124 7.25 45.3125 8.06148 45.3125 9.0625C45.3125 10.0635 46.124 10.875 47.125 10.875Z" fill="#EE8041"/>
<path d="M29 10.875C30.001 10.875 30.8125 10.0635 30.8125 9.0625C30.8125 8.06148 30.001 7.25 29 7.25C27.999 7.25 27.1875 8.06148 27.1875 9.0625C27.1875 10.0635 27.999 10.875 29 10.875Z" fill="#EE8041"/>
<path d="M10.875 10.875C11.876 10.875 12.6875 10.0635 12.6875 9.0625C12.6875 8.06148 11.876 7.25 10.875 7.25C9.87398 7.25 9.0625 8.06148 9.0625 9.0625C9.0625 10.0635 9.87398 10.875 10.875 10.875Z" fill="#EE8041"/>
<path d="M19.0312 35.3437H20.8438H37.1562H38.9688H57.0938V22.6725C57.0938 20.6597 55.7425 18.869 53.8068 18.3144L50.7872 17.4525C50.9095 16.7474 51.3264 16.0959 51.9725 15.6183C54.0442 14.0858 55.2812 11.6353 55.2812 9.06245C55.2812 6.74154 54.288 4.52395 52.5571 2.97789C50.8261 1.43092 48.498 0.698668 46.178 0.958762C42.5068 1.37382 39.5034 4.33273 39.0367 7.99398C38.6579 10.9701 39.9221 13.9073 42.3364 15.66C42.9436 16.1013 43.3468 16.7502 43.4647 17.4516L40.4423 18.3144C39.4681 18.5935 38.6425 19.1871 38.0625 19.9637C37.4816 19.1871 36.6569 18.5926 35.6818 18.3144L32.6622 17.4525C32.7845 16.7474 33.2014 16.0959 33.8475 15.6183C35.9192 14.0858 37.1562 11.6353 37.1562 9.06245C37.1562 6.74154 36.163 4.52395 34.4321 2.97789C32.7011 1.43092 30.3721 0.698668 28.053 0.958762C24.3818 1.37382 21.3784 4.33273 20.9117 7.99398C20.5329 10.9701 21.7971 13.9073 24.2114 15.66C24.8186 16.1013 25.2218 16.7502 25.3397 17.4516L22.3173 18.3144C21.3431 18.5935 20.5175 19.1871 19.9375 19.9637C19.3566 19.1871 18.5319 18.5926 17.5568 18.3144L14.5372 17.4525C14.6595 16.7474 15.0764 16.0959 15.7225 15.6183C17.7942 14.0858 19.0312 11.6353 19.0312 9.06245C19.0312 6.74154 18.038 4.52395 16.3071 2.97789C14.5761 1.43092 12.2462 0.698668 9.92797 0.958762C6.25675 1.37473 3.25344 4.33273 2.78672 7.99398C2.40791 10.9701 3.67213 13.9073 6.08638 15.66C6.69356 16.1013 7.09684 16.7502 7.21466 17.4516L4.19231 18.3144C2.25747 18.8681 0.90625 20.6597 0.90625 22.6725V35.3437H9.96875V44.4062C9.96875 45.4058 9.15584 46.2187 8.15625 46.2187H0.90625V48.0312H8.15625C10.1554 48.0312 11.7812 46.4054 11.7812 44.4062V33.5312C11.7812 32.5316 12.5942 31.7187 13.5938 31.7187C14.5933 31.7187 15.4062 32.5316 15.4062 33.5312V53.4687C15.4062 55.4679 17.0321 57.0937 19.0312 57.0937C21.0304 57.0937 22.6562 55.4679 22.6562 53.4687V49.8437C22.6562 48.8441 23.4692 48.0312 24.4688 48.0312H26.3347C26.7869 52.103 30.2461 55.2812 34.4375 55.2812H40.7812C40.7812 56.2808 41.5942 57.0937 42.5938 57.0937H44.4062C45.4058 57.0937 46.2188 56.2808 46.2188 55.2812H54.375C55.8739 55.2812 57.0938 54.0614 57.0938 52.5625C57.0938 51.0635 55.8739 49.8437 54.375 49.8437H46.2188V44.4062H54.375C55.8739 44.4062 57.0938 43.1864 57.0938 41.6875C57.0938 40.1885 55.8739 38.9687 54.375 38.9687H46.2188C46.2188 37.9691 45.4058 37.1562 44.4062 37.1562H42.5938C41.5942 37.1562 40.7812 37.9691 40.7812 38.9687H34.4375C30.2461 38.9687 26.7869 42.1469 26.3347 46.2187H24.4688C22.4696 46.2187 20.8438 47.8445 20.8438 49.8437V53.4687C20.8438 54.4683 20.0308 55.2812 19.0312 55.2812C18.0317 55.2812 17.2188 54.4683 17.2188 53.4687V35.3437H19.0312ZM54.375 51.6562C54.8753 51.6562 55.2812 52.0622 55.2812 52.5625C55.2812 53.0627 54.8753 53.4687 54.375 53.4687H46.2188V51.6562H54.375ZM54.375 40.7812C54.8753 40.7812 55.2812 41.1872 55.2812 41.6875C55.2812 42.1877 54.8753 42.5937 54.375 42.5937H46.2188V40.7812H54.375ZM42.5938 38.9687H44.4062L44.4081 55.2812H42.5938V38.9687ZM34.4375 40.7812H40.7812V53.4687H34.4375C30.9403 53.4687 28.0938 50.6222 28.0938 47.125C28.0938 43.6277 30.9403 40.7812 34.4375 40.7812ZM48.8732 22.6562H45.3759L44.3691 19.0774L44.5322 19.0312H49.7178L49.88 19.0774L48.8732 22.6562ZM48.3638 24.4687L47.4041 27.8825C47.3352 28.1318 46.9157 28.1318 46.8468 27.8825L45.8862 24.4687H48.3638ZM46.2188 9.06245C46.2188 8.5622 46.6247 8.1562 47.125 8.1562C47.6253 8.1562 48.0312 8.5622 48.0312 9.06245C48.0312 9.5627 47.6253 9.9687 47.125 9.9687C46.6247 9.9687 46.2188 9.5627 46.2188 9.06245ZM43.4021 14.1945C41.5235 12.8306 40.5402 10.5433 40.8356 8.22326C41.1972 5.38036 43.5308 3.08301 46.3819 2.76129C48.2188 2.54651 49.9842 3.1102 51.349 4.32911C52.6957 5.53261 53.4688 7.25811 53.4688 9.06245C53.4688 11.0924 52.5308 12.9503 50.895 14.1601C49.8438 14.9368 49.1777 16.027 48.9946 17.2187H48.0312V11.6144C49.0834 11.2393 49.8438 10.2424 49.8438 9.06245C49.8438 7.56351 48.6239 6.3437 47.125 6.3437C45.6261 6.3437 44.4062 7.56351 44.4062 9.06245C44.4062 10.2424 45.1666 11.2393 46.2188 11.6144V17.2187H45.2563C45.0742 16.0288 44.4135 14.9295 43.4021 14.1945ZM40.9408 20.058L42.6273 19.5759L45.1013 28.3728C45.3551 29.2754 46.1879 29.9062 47.125 29.9062C48.0621 29.9062 48.8949 29.2754 49.1487 28.3728L51.6227 19.5759L53.3083 20.058C54.4702 20.3897 55.2812 21.4654 55.2812 22.6725V33.5312H38.9688V22.6725C38.9688 21.4654 39.7798 20.3897 40.9408 20.058ZM29 22.0037L26.8776 19.0312H31.1233L29 22.0037ZM24.9482 19.4481L27.8164 23.4637L25.9314 25.3487L24.7615 19.5006L24.9482 19.4481ZM28.0938 9.06245C28.0938 8.5622 28.4998 8.1562 29 8.1562C29.5002 8.1562 29.9062 8.5622 29.9062 9.06245C29.9062 9.5627 29.5002 9.9687 29 9.9687C28.4998 9.9687 28.0938 9.5627 28.0938 9.06245ZM33.0518 19.4481L33.2376 19.5015L32.0677 25.3496L30.1827 23.4646L33.0518 19.4481ZM25.2771 14.1945C23.3985 12.8306 22.4152 10.5433 22.7106 8.22326C23.0722 5.38036 25.4058 3.08301 28.2569 2.76129C30.0929 2.54651 31.8592 3.1102 33.224 4.32911C34.5707 5.53261 35.3438 7.25811 35.3438 9.06245C35.3438 11.0924 34.4058 12.9503 32.77 14.1601C31.7188 14.9368 31.0527 16.027 30.8696 17.2187H29.9062V11.6144C30.9584 11.2393 31.7188 10.2424 31.7188 9.06245C31.7188 7.56351 30.4989 6.3437 29 6.3437C27.5011 6.3437 26.2812 7.56351 26.2812 9.06245C26.2812 10.2424 27.0416 11.2393 28.0938 11.6144V17.2187H27.1313C26.9492 16.0288 26.2885 14.9295 25.2771 14.1945ZM22.8158 20.058L23.0142 20.0018L24.8186 29.0262L29 24.8439L33.1814 29.0253L34.9858 20.0009L35.1833 20.0571C36.3452 20.3897 37.1562 21.4654 37.1562 22.6725V33.5312H20.8438V22.6725C20.8438 21.4654 21.6548 20.3897 22.8158 20.058ZM7.15122 14.1936C5.27347 12.8306 4.29019 10.5433 4.58562 8.22326C4.94722 5.38036 7.28081 3.08301 10.1319 2.76129C11.967 2.54651 13.7342 3.1102 15.099 4.32911C16.4457 5.53261 17.2188 7.25811 17.2188 9.06245C17.2188 11.0924 16.2808 12.9503 14.645 14.1601C13.5938 14.9368 12.9277 16.027 12.7446 17.2187H11.7812V11.6144C12.8334 11.2393 13.5938 10.2424 13.5938 9.06245C13.5938 7.56351 12.3739 6.3437 10.875 6.3437C9.37606 6.3437 8.15625 7.56351 8.15625 9.06245C8.15625 10.2424 8.91659 11.2393 9.96875 11.6144V17.2187H9.00631C8.82416 16.0288 8.1635 14.9295 7.15122 14.1936ZM11.7332 25.0478L10.875 25.906L10.0168 25.0478L10.769 19.0312H10.9819L11.7332 25.0478ZM9.96875 9.06245C9.96875 8.5622 10.3748 8.1562 10.875 8.1562C11.3752 8.1562 11.7812 8.5622 11.7812 9.06245C11.7812 9.5627 11.3752 9.9687 10.875 9.9687C10.3748 9.9687 9.96875 9.5627 9.96875 9.06245ZM13.5938 29.9062C11.5946 29.9062 9.96875 31.532 9.96875 33.5312H2.71875V22.6725C2.71875 21.4654 3.52984 20.3897 4.69075 20.058L8.28222 19.0312H8.94197L8.10822 25.7021L10.875 28.4689L13.6418 25.7021L12.808 19.0312H13.4678L17.0583 20.058C18.2202 20.3897 19.0312 21.4654 19.0312 22.6725V33.5312H17.2188C17.2188 31.532 15.5929 29.9062 13.5938 29.9062Z" fill="black"/>
</svg>
