<svg width="58" height="58" viewBox="0 0 58 58" fill="none" xmlns="http://www.w3.org/2000/svg">
<g clip-path="url(#clip0)">
<path d="M27.7354 21.4175H46.7666V57.1463H27.7354V21.4175Z" fill="#FFCEBF"/>
<path d="M27.7354 21.4175V34.7496L40.521 35.3818C42.1157 35.4606 43.3682 36.7766 43.3682 38.3732V57.1462H46.7666V21.4175H27.7354Z" fill="#FFB09E"/>
<path d="M51.3099 12.272V26.5272C51.3099 30.4578 48.1243 33.6451 44.1957 33.6451H31.6427C26.9611 33.6451 23.167 29.8476 23.167 25.1649V12.272H51.3099Z" fill="#FFCEBF"/>
<path d="M48.5792 16.9332C48.5792 16.9332 38.3401 16.6572 36.1574 21.9088C33.5469 28.1901 35.0885 37.3847 48.5792 32.1331V16.9332Z" fill="#FFB09E"/>
<path d="M33.7213 17.8432C35.6644 17.8432 37.2395 16.268 37.2395 14.325V5.71788C37.2395 3.77477 35.6643 2.19971 33.7213 2.19971C31.7783 2.19971 30.2031 3.77488 30.2031 5.71788V14.3249C30.2031 16.268 31.7783 17.8432 33.7213 17.8432Z" fill="#FFCEBF"/>
<path d="M33.7207 2.19971C33.6232 2.19971 33.527 2.20469 33.4315 2.21251C33.6922 2.70381 33.8404 3.26398 33.8404 3.85894V12.4659C33.8404 14.3115 32.4191 15.8242 30.6113 15.9713C31.2021 17.0845 32.3725 17.8431 33.7206 17.8431C35.6636 17.8431 37.2387 16.2679 37.2387 14.3249V5.71788C37.2388 3.77488 35.6637 2.19971 33.7207 2.19971Z" fill="#FFB09E"/>
<path d="M40.7545 18.1996C42.6976 18.1996 44.2727 16.6244 44.2727 14.6814V4.36388C44.2727 2.42077 42.6975 0.845703 40.7545 0.845703C38.8114 0.845703 37.2363 2.42088 37.2363 4.36388V14.6814C37.2362 16.6244 38.8114 18.1996 40.7545 18.1996Z" fill="#FFCEBF"/>
<path d="M40.7554 0.845703C40.6897 0.845703 40.6245 0.847855 40.5596 0.851367C40.7617 1.2952 40.8752 1.78786 40.8752 2.30737V12.6249C40.8752 14.5022 39.4047 16.0358 37.5527 16.1374C38.1066 17.3536 39.3318 18.1996 40.7553 18.1996C42.6983 18.1996 44.2735 16.6244 44.2735 14.6814V4.36388C44.2736 2.42088 42.6984 0.845703 40.7554 0.845703Z" fill="#FFB09E"/>
<path d="M47.7916 18.1996C49.7347 18.1996 51.3098 16.6244 51.3098 14.6814V4.36388C51.3098 2.42077 49.7346 0.845703 47.7916 0.845703C45.8486 0.845703 44.2734 2.42088 44.2734 4.36388V14.6814C44.2734 16.6244 45.8486 18.1996 47.7916 18.1996Z" fill="#FFCEBF"/>
<path d="M47.7914 0.845703C47.662 0.845703 47.5346 0.85318 47.4088 0.866773C47.7275 1.39614 47.9111 2.01601 47.9111 2.67882V12.9964C47.9111 14.8101 46.5385 16.3028 44.7754 16.4935C45.3908 17.5157 46.5111 18.1996 47.7913 18.1996C49.7343 18.1996 51.3095 16.6244 51.3095 14.6814V4.36388C51.3097 2.42088 49.7345 0.845703 47.7914 0.845703Z" fill="#FFB09E"/>
<path d="M26.6842 19.7024C28.6273 19.7024 30.2024 18.1273 30.2024 16.1843V7.57726C30.2024 5.63414 28.6272 4.05908 26.6842 4.05908C24.7411 4.05908 23.166 5.63426 23.166 7.57726V16.1843C23.1659 18.1273 24.7411 19.7024 26.6842 19.7024Z" fill="#FFCEBF"/>
<path d="M26.6847 4.05859C26.6293 4.05859 26.5743 4.06018 26.5196 4.06279C26.7027 4.48861 26.8044 4.95771 26.8044 5.45059V14.0576C26.8044 15.9453 25.3176 17.4854 23.4512 17.5717C23.9896 18.8246 25.2344 19.7021 26.6846 19.7021C28.6277 19.7021 30.2027 18.1269 30.2027 16.1839V7.57688C30.2028 5.63377 28.6277 4.05859 26.6847 4.05859Z" fill="#FFB09E"/>
<path d="M38.0618 26.9969C38.4226 24.9058 40.0055 22.2406 40.0055 22.2406C41.9013 19.7364 43.9656 18.3072 46.8807 18.4065C47.7761 18.437 49.557 17.8211 49.7978 16.7518C49.8485 16.5262 49.7361 16.2952 49.5267 16.1974L47.8482 15.4134C44.868 14.0214 44.0315 10.3986 44.4095 8.80004C44.8135 7.0921 45.7136 6.29981 46.3626 6.60295C46.3626 6.60295 53.8001 9.97681 55.9513 11.0437C56.6964 11.4132 57.1624 12.1789 57.15 13.0112L57.0586 19.2079C57.0253 21.4659 56.2725 23.6544 54.9099 25.4542L51.7331 29.6507C47.3834 35.3919 43.5126 34.1761 38.3488 33.6448C38.3488 33.6448 37.4988 30.26 38.0618 26.9969Z" fill="#FFCEBF"/>
<path d="M55.9521 11.0435C53.8008 9.97659 46.3634 6.60274 46.3634 6.60274C45.8593 6.36723 45.2046 6.79543 44.7477 7.79763C47.0882 8.86542 51.0729 10.6925 52.5536 11.4269C53.2987 11.7965 53.7647 12.5621 53.7524 13.3944L53.661 19.5911C53.6277 21.8491 52.8748 24.0376 51.5123 25.8374L48.3354 30.0339C46.5457 32.3963 44.8369 33.5801 43.0859 34.1191C46.1101 34.2234 48.8141 33.5044 51.7338 29.6505L54.9107 25.454C56.2732 23.6542 57.0261 21.4657 57.0594 19.2075L57.1508 13.0108C57.1632 12.1787 56.6971 11.413 55.9521 11.0435Z" fill="#FFB09E"/>
<path d="M5.16992 41.5522H23.1645V57.1464H5.16992V41.5522Z" fill="#F89580"/>
<path d="M27.4605 32.9048V46.3834C27.4605 50.1 24.4484 53.1136 20.7338 53.1136H8.86456C4.43798 53.1136 0.850586 49.5229 0.850586 45.0953V32.9048H27.4605Z" fill="#FFA78F"/>
<path d="M24.8781 37.3119C24.8781 37.3119 15.1968 37.051 13.133 42.0165C10.6646 47.9556 12.1223 56.6495 24.8781 51.6839V37.3119Z" fill="#F89580"/>
<path d="M10.8295 38.1727C12.6667 38.1727 14.1562 36.6834 14.1562 34.8461V26.708C14.1562 24.8708 12.6669 23.3813 10.8295 23.3813C8.99235 23.3813 7.50293 24.8707 7.50293 26.708V34.8461C7.50304 36.6834 8.99235 38.1727 10.8295 38.1727Z" fill="#FFA78F"/>
<path d="M10.8295 23.3813C10.7373 23.3813 10.6463 23.3861 10.5561 23.3935C10.8026 23.858 10.9428 24.3876 10.9428 24.9502V33.0883C10.9428 34.8334 9.59884 36.2636 7.88965 36.4028C8.44824 37.4554 9.55488 38.1726 10.8295 38.1726C12.6667 38.1726 14.1561 36.6833 14.1561 34.846V26.7079C14.1561 24.8708 12.6667 23.3813 10.8295 23.3813Z" fill="#F89580"/>
<path d="M17.4799 38.5093C19.3171 38.5093 20.8066 37.02 20.8066 35.1826V25.4272C20.8066 23.59 19.3172 22.1006 17.4799 22.1006C15.6427 22.1006 14.1533 23.5899 14.1533 25.4272V35.1826C14.1533 37.02 15.6427 38.5093 17.4799 38.5093Z" fill="#FFA78F"/>
<path d="M17.4804 22.1006C17.4182 22.1006 17.3566 22.1026 17.2952 22.106C17.4863 22.5257 17.5935 22.9915 17.5935 23.4827V33.2382C17.5935 35.0132 16.2031 36.4633 14.4521 36.5594C14.9758 37.7093 16.1343 38.5093 17.4803 38.5093C19.3175 38.5093 20.8069 37.02 20.8069 35.1826V25.4272C20.8069 23.59 19.3176 22.1006 17.4804 22.1006Z" fill="#F89580"/>
<path d="M24.1333 38.5093C25.9705 38.5093 27.4599 37.02 27.4599 35.1826V25.4272C27.4599 23.59 25.9706 22.1006 24.1333 22.1006C22.2961 22.1006 20.8066 23.5899 20.8066 25.4272V35.1826C20.8066 37.02 22.2961 38.5093 24.1333 38.5093Z" fill="#FFA78F"/>
<path d="M24.1339 22.1006C24.0116 22.1006 23.891 22.1076 23.7721 22.1205C24.0735 22.621 24.2471 23.2071 24.2471 23.8339V33.5893C24.2471 35.3043 22.9493 36.7157 21.2822 36.896C21.8642 37.8625 22.9234 38.5093 24.1339 38.5093C25.9711 38.5093 27.4604 37.02 27.4604 35.1826V25.4272C27.4605 23.59 25.9711 22.1006 24.1339 22.1006Z" fill="#F89580"/>
<path d="M4.17623 39.93C6.01342 39.93 7.50284 38.4407 7.50284 36.6034V28.4653C7.50284 26.6281 6.01354 25.1387 4.17623 25.1387C2.33903 25.1387 0.849609 26.628 0.849609 28.4653V36.6034C0.849609 38.4407 2.33903 39.93 4.17623 39.93Z" fill="#FFA78F"/>
<path d="M4.17638 25.1392C4.12404 25.1392 4.07204 25.1407 4.02039 25.1431C4.19348 25.5458 4.28966 25.9893 4.28966 26.4554V34.5936C4.28966 36.3785 2.88384 37.8347 1.11914 37.9163C1.62823 39.1009 2.80533 39.9306 4.17649 39.9306C6.01368 39.9306 7.50311 38.4413 7.50311 36.604V28.4659C7.50288 26.6285 6.01357 25.1392 4.17638 25.1392Z" fill="#F89580"/>
<path d="M14.9341 46.8275C15.2753 44.8504 16.772 42.3303 16.772 42.3303C18.5644 39.9625 20.5163 38.6111 23.2726 38.7051C24.1194 38.734 25.8032 38.1516 26.0308 37.1405C26.0788 36.9272 25.9725 36.7088 25.7746 36.6162L24.1875 35.8749C21.3696 34.5587 20.5787 31.1333 20.9361 29.6218C21.318 28.0068 22.1692 27.2577 22.7828 27.5443C22.7828 27.5443 29.8151 30.7343 31.8493 31.7431C32.5538 32.0924 32.9943 32.8164 32.9828 33.6034L32.8962 39.4625C32.8647 41.5976 32.1529 43.6668 30.8645 45.3687L27.8606 49.3366C23.7479 54.7652 20.0878 53.6154 15.2054 53.1132C15.2055 53.1132 14.4018 49.9128 14.9341 46.8275Z" fill="#FFA78F"/>
<path d="M31.8491 31.7433C29.815 30.7346 22.7826 27.5446 22.7826 27.5446C22.3059 27.322 21.687 27.7268 21.2549 28.6743C23.4679 29.6839 27.2357 31.4115 28.6358 32.1058C29.3403 32.4552 29.7809 33.1792 29.7693 33.9661L29.6827 39.8253C29.6512 41.9604 28.9394 44.0296 27.651 45.7314L24.6471 49.6993C22.9549 51.933 21.3392 53.0523 19.6836 53.562C22.5429 53.6606 25.0997 52.9808 27.8605 49.3368L30.8643 45.3689C32.1527 43.6671 32.8644 41.5979 32.896 39.4628L32.9826 33.6036C32.9942 32.8167 32.5536 32.0927 31.8491 31.7433Z" fill="#F89580"/>
<path d="M56.3289 10.2824C55.4814 9.86212 53.845 9.09792 52.1589 8.31991V4.36379C52.1309 0.133978 46.7481 -1.5794 44.2728 1.77916C42.3156 -0.919538 38.0964 -0.448627 36.7648 2.58992C34.5061 0.34083 30.5689 1.31845 29.5852 4.31542C26.8275 1.82221 22.3027 3.82389 22.3164 7.5769V16.1839C22.3164 16.189 22.3168 16.1941 22.3168 16.1992V21.6675C21.7208 21.9566 21.2039 22.3835 20.8067 22.9062C18.9335 20.3986 14.9843 20.8388 13.6923 23.6716C11.5427 21.5943 7.86323 22.5088 6.89739 25.3014C4.2465 22.982 -0.0142377 24.9111 3.57696e-05 28.4655V29.4491C0.0390045 30.5741 1.66063 30.5732 1.69925 29.4491V28.4655C1.83576 25.1786 6.51801 25.1811 6.65316 28.4655V36.6036C6.51801 39.8813 1.85309 39.8923 1.69959 36.6189V34.2243C1.69959 34.2217 1.69925 34.2192 1.69925 34.2166V33.4051C1.66029 32.2801 0.0386647 32.281 3.57696e-05 33.4051V36.6036C3.57696e-05 36.6087 0.000375613 36.6138 0.000375613 36.6189V45.0953C0.000375613 48.3243 1.73494 51.1547 4.32013 52.7055V57.1464C4.32013 57.6156 4.70053 57.996 5.16974 57.996H23.1644C23.6336 57.996 24.014 57.6156 24.014 57.1464V53.7C24.9697 53.2849 25.9226 52.6559 26.8855 51.7296V57.1464C26.8855 57.6156 27.2659 57.996 27.7351 57.996H46.7665C47.2358 57.996 47.6161 57.6156 47.6161 57.1464V51.5651C47.5771 50.4401 45.9554 50.4411 45.9169 51.5651V56.2968H28.5847V49.7879L31.5418 45.8817C32.9491 44.0228 33.7112 41.8075 33.7456 39.4753L33.8191 34.4947H38.3078C38.837 34.5496 39.358 34.6123 39.8622 34.673C41.1653 34.8296 42.4165 34.9802 43.6387 34.9802C44.4078 34.9802 45.1653 34.9198 45.9168 34.7646V47.5685C45.9557 48.6935 47.5775 48.6926 47.616 47.5685V34.2313C49.2045 33.5483 50.7848 32.3091 52.4105 30.1633L55.5874 25.9669C57.0694 24.0092 57.872 21.6762 57.9082 19.2202L57.9997 13.0235C58.0168 11.8701 57.361 10.7942 56.3289 10.2824ZM47.7911 1.69522C49.2625 1.69522 50.4598 2.89238 50.4598 4.36379V7.53838C48.5193 6.64844 46.8613 5.89614 46.7223 5.83316C46.2909 5.63174 45.8013 5.64296 45.3431 5.86465C45.268 5.90101 45.1947 5.94451 45.1226 5.99152V4.36379C45.1226 2.89238 46.3197 1.69522 47.7911 1.69522ZM44.273 17.266C44.4036 17.4432 44.5468 17.6108 44.7021 17.7663C44.1737 17.8925 43.6646 18.0757 43.1706 18.318C43.5965 18.034 43.9698 17.6774 44.273 17.266ZM47.8991 17.3575C46.3905 17.3912 45.1194 16.2031 45.1226 14.6813V14.2793C45.7217 15.0479 46.5006 15.7216 47.4889 16.1831L48.8266 16.808C48.6339 17.0171 48.2779 17.2167 47.8991 17.3575ZM40.7548 1.69522C42.2262 1.69522 43.4233 2.89238 43.4233 4.36379V14.6813C43.2763 18.2225 38.2319 18.2197 38.0862 14.6813V14.4209C38.0869 14.389 38.0886 14.3572 38.0886 14.3251V5.71795C38.0886 5.68578 38.0869 5.65406 38.0862 5.62211V4.36379C38.0861 2.89238 39.2834 1.69522 40.7548 1.69522ZM31.0522 5.71795C31.1884 2.23467 36.1306 2.15492 36.387 5.622V14.421C36.1293 17.8907 31.1872 17.8056 31.0522 14.3251V5.71795ZM26.6843 4.90833C28.1559 4.90833 29.353 6.10549 29.353 7.5769V16.1839C29.2072 19.7158 24.1801 19.7268 24.0161 16.1992V12.2718C24.0161 12.2692 24.0158 12.2667 24.0158 12.2641V7.5769C24.0157 6.10549 25.2128 4.90833 26.6843 4.90833ZM24.1334 22.9504C25.4992 22.9504 26.6104 24.0616 26.6104 25.4274V28.3569C24.8039 27.5287 23.2719 26.8335 23.1423 26.7747C22.7218 26.5782 22.2445 26.5889 21.7985 26.8048C21.7506 26.828 21.7033 26.8535 21.6565 26.8813V25.4274C21.6565 24.0616 22.7675 22.9504 24.1334 22.9504ZM20.8069 37.7039C20.9053 37.8334 21.0114 37.9567 21.1239 38.0738C20.7885 38.158 20.4611 38.2659 20.1408 38.3994C20.3885 38.1941 20.6119 37.9604 20.8069 37.7039ZM24.2402 37.6672C22.8376 37.7006 21.6534 36.5985 21.6565 35.1829V34.9462C22.1842 35.5919 22.8885 36.2061 23.8278 36.6449L25.0369 37.2096C24.8578 37.3831 24.5595 37.5475 24.2402 37.6672ZM17.4802 22.9504C18.8461 22.9504 19.9572 24.0616 19.9572 25.4274V35.1829C19.8207 38.4697 15.1385 38.4672 15.0033 35.1829V34.9376C15.004 34.907 15.0057 34.8767 15.0057 34.846V26.7077C15.0057 26.677 15.004 26.6467 15.0033 26.6161V25.4273C15.0032 24.0616 16.1144 22.9504 17.4802 22.9504ZM8.35249 26.7078C8.47868 23.4761 13.0633 23.4 13.304 26.6163V34.9377C13.0619 38.1564 8.47744 38.0753 8.35249 34.8462V26.7078ZM22.3147 56.2968H6.01946V53.4919C6.91302 53.7958 7.86912 53.9632 8.86418 53.9632L15.1617 53.963C15.6618 54.0148 16.1543 54.0741 16.6309 54.1314C18.5905 54.3619 20.4132 54.6028 22.3149 54.2309V56.2968H22.3147ZM32.0466 39.4502C32.0175 41.4182 31.3745 43.2876 30.1871 44.8561L27.1835 48.8237C23.8053 53.2828 20.8812 52.9313 16.834 52.4445C16.3364 52.3847 15.2344 52.264 15.2054 52.264H8.86407C4.91361 52.264 1.69971 49.0481 1.69971 45.0953V39.9638C3.91447 41.6423 7.21922 40.5928 8.10825 38.0099C9.80747 39.5304 12.6077 39.2872 14.027 37.5283C14.978 38.9983 17.0375 39.7526 18.761 39.1573C17.8365 39.7952 16.9594 40.6752 16.0945 41.8176C15.8113 42.1918 15.8849 42.7246 16.2591 43.0079C16.6332 43.2911 17.166 43.2174 17.4493 42.8433C19.2528 40.461 20.9857 39.4778 23.2436 39.5543C24.3556 39.5922 26.5101 38.88 26.8596 37.327C26.9943 36.7286 26.6892 36.1059 26.134 35.8466L24.547 35.1053C22.1961 34.0072 21.4746 31.0362 21.7628 29.8175C21.994 28.8399 22.3631 28.4475 22.5066 28.3522C23.2685 28.6982 29.5859 31.5693 31.4717 32.5044C31.8802 32.7071 32.1399 33.1336 32.1332 33.591L32.0466 39.4502ZM56.2093 19.1951C56.1785 21.287 55.4949 23.2739 54.2328 24.9412L51.056 29.1374C47.4661 33.876 44.3613 33.5023 40.0652 32.9858C39.5393 32.9224 38.3633 32.7946 38.3275 32.7953H33.7243C33.5055 32.0186 32.9669 31.3492 32.2267 30.982C31.4297 30.5868 29.8947 29.8699 28.3097 29.1383V25.4273C28.3138 23.0853 26.3582 21.1805 24.0162 21.2541V19.6384C24.7548 20.2102 25.6802 20.5517 26.6845 20.5517C28.6023 20.5517 30.2342 19.3086 30.8199 17.5864C32.6112 19.2425 35.616 18.9843 37.1071 17.0798C38.1865 18.8031 40.6279 19.5672 42.5281 18.6714C41.4093 19.3558 40.3608 20.364 39.3283 21.7278C38.6805 22.6482 39.9738 23.6264 40.6831 22.7534C42.6011 20.2198 44.4462 19.1737 46.8519 19.2556C46.8814 19.2566 46.9112 19.2571 46.9419 19.2571C48.1235 19.2571 50.2723 18.5136 50.6268 16.9382C50.7642 16.3274 50.4528 15.692 49.8864 15.4275L48.208 14.6435C45.6985 13.4713 44.9287 10.2976 45.2366 8.99552C45.4827 7.95526 45.8977 7.49228 46.0665 7.40142C46.7486 7.71102 53.557 10.8045 55.5742 11.8048C56.023 12.0274 56.3083 12.4959 56.3009 12.9985L56.2093 19.1951Z" fill="black"/>
</g>
<defs>
<clipPath id="clip0">
<rect width="58" height="58" fill="white"/>
</clipPath>
</defs>
</svg>
